<svg width="520" height="140" viewBox="0 0 520 140" fill="none" xmlns="http://www.w3.org/2000/svg">
  <rect width="520" height="140" rx="28" fill="#13151C"/>
  <rect x="26" y="26" width="88" height="88" rx="22" fill="url(#bgA)"/>
  <rect x="42" y="40" width="56" height="38" rx="10" fill="#F7FAFF" fill-opacity="0.14" stroke="#DCE9FF" stroke-opacity="0.35"/>
  <rect x="48" y="46" width="44" height="24" rx="6" fill="#C7D9FF" fill-opacity="0.18"/>
  <path d="M52 66.5L61 57.2C62 56.2 63.6 56.22 64.6 57.26L69.6 62.5C70.25 63.18 71.27 63.34 72.1 62.9L77.5 60.05C78.96 59.28 80.75 60.34 80.75 61.99V70H52V66.5Z" fill="#89B7FF"/>
  <circle cx="84" cy="52" r="3.2" fill="#FDFDFE"/>
  <rect x="40" y="80" width="48" height="12" rx="6" fill="#0F1218"/>
  <rect x="45" y="83" width="21" height="2.4" rx="1.2" fill="#F8FAFF"/>
  <rect x="45" y="87.4" width="33" height="2.4" rx="1.2" fill="#F8FAFF" fill-opacity="0.8"/>
  <path d="M92.5 39L99 45.5M99 39L92.5 45.5" stroke="#F8FAFF" stroke-width="2.6" stroke-linecap="round"/>
  <path d="M150 53H208.5" stroke="#F7F8FB" stroke-width="10" stroke-linecap="round"/>
  <path d="M179.5 46V100" stroke="#F7F8FB" stroke-width="10" stroke-linecap="round"/>
  <path d="M231 82C231 67.1 243.6 55 260.8 55C272 55 281.9 60 287.8 67.7L278.7 74C274.6 69.1 268.5 66 260.8 66C250.1 66 242.6 73.1 242.6 82C242.6 90.9 250.1 98 260.8 98C268.8 98 274.7 94.8 278.9 89.7L287.9 96C281.7 104 271.7 109 260.8 109C243.5 109 231 96.9 231 82Z" fill="#F7F8FB"/>
  <path d="M301.5 57H313.2V73.6H339.6V57H351.3V108H339.6V84.3H313.2V108H301.5V57Z" fill="#F7F8FB"/>
  <path d="M364.2 82.5C364.2 67.7 376.7 55 393.5 55C410.3 55 422.9 67.7 422.9 82.5C422.9 97.3 410.3 110 393.5 110C376.7 110 364.2 97.3 364.2 82.5ZM411 82.5C411 73.3 403.9 66 393.5 66C383.2 66 376 73.3 376 82.5C376 91.7 383.2 99 393.5 99C403.9 99 411 91.7 411 82.5Z" fill="#F7F8FB"/>
  <path d="M434.9 57H447.1L460.5 77.6L474 57H486.1L466.3 86.3V108H454.6V86.3L434.9 57Z" fill="#F7F8FB"/>
  <defs>
    <linearGradient id="bgA" x1="36" y1="30" x2="102" y2="110" gradientUnits="userSpaceOnUse">
      <stop stop-color="#243E66"/>
      <stop offset="0.52" stop-color="#18263F"/>
      <stop offset="1" stop-color="#0D1118"/>
    </linearGradient>
  </defs>
</svg>
